<svg width="41" height="9" viewBox="0 0 41 9" fill="none" xmlns="http://www.w3.org/2000/svg">
<g clip-path="url(#clip0_20_169)">
<path fill-rule="evenodd" clip-rule="evenodd" d="M19.8399 8.38804H17.3641L17.793 5.97774H20.2688L19.8399 8.38804ZM5.00649 3.70514L4.79048 4.99346H6.22406L6.05204 5.95732C6.02509 6.10924 5.92064 6.63386 5.7793 6.75289C5.65238 6.84097 5.49831 6.88316 5.34326 6.87235H4.59978C4.18355 6.87235 3.81906 6.77507 3.62106 6.35256C3.42682 5.90827 3.57587 5.00822 3.649 4.59664C3.72452 4.17413 3.86921 3.42074 4.20694 2.99824C4.37884 2.79011 4.59833 2.62472 4.84762 2.51551C5.09688 2.4063 5.36889 2.35636 5.64154 2.36974H8.45445L9.44252 0.804821H4.80454C4.59703 0.804821 3.57824 0.81552 2.788 1.32458C1.66617 2.03964 1.31911 3.43709 1.10505 4.63981C0.927658 5.63635 0.759978 7.01239 1.47034 7.74787C1.88518 8.18126 2.65739 8.38725 3.28054 8.38725H6.89916C7.20818 8.38969 7.5105 8.29898 7.7653 8.12737C8.05021 7.91275 8.23935 7.59823 8.29311 7.2497L8.6947 4.99327L8.71967 4.85124L8.86654 4.02806L8.9238 3.70514H5.00649ZM13.3527 3.70514L13.1368 4.99346H14.5703L14.3988 5.9571C14.3719 6.10902 14.2674 6.63364 14.1261 6.7527C13.9991 6.84074 13.8451 6.88297 13.69 6.87213H12.946C12.5298 6.87213 12.165 6.77488 11.967 6.35237C11.7726 5.90808 11.922 5.00803 11.9952 4.59642C12.0703 4.17394 12.2152 3.42055 12.5529 2.99805C12.7248 2.78992 12.9443 2.62453 13.1936 2.51532C13.4429 2.40611 13.7149 2.35617 13.9875 2.36955H16.8006L17.7889 0.804626H13.1509C12.9432 0.804626 11.9246 0.815325 11.1342 1.32439C10.0121 2.03945 9.66529 3.43689 9.45124 4.63962C9.27385 5.63635 9.10556 7.01277 9.81633 7.74844C10.2312 8.18186 11.0034 8.38785 11.6267 8.38785H15.2454C15.5543 8.39029 15.8567 8.29955 16.1115 8.12797C16.3963 7.91329 16.5855 7.59877 16.6393 7.2503L17.0411 4.99384L17.0661 4.85184L17.2127 4.02843L17.27 3.70552H13.3527V3.70514Z" fill="#FF7D02"/>
<path fill-rule="evenodd" clip-rule="evenodd" d="M26.9096 8.38773C26.5925 8.38773 26.2793 8.36596 26.0266 8.12785C25.7293 7.83609 25.7828 7.53206 25.8466 7.17471L26.7716 1.97457C26.8115 1.63516 26.9844 1.32431 27.2539 1.10798C27.5362 0.898552 27.8836 0.791347 28.2372 0.804523H33.2038L32.2159 2.3677H29.6751C29.5331 2.3625 29.3928 2.40026 29.2734 2.47585C29.1651 2.57025 29.0986 2.70233 29.0879 2.84408L28.934 3.70484H31.9904L31.7616 4.99315H28.7053L28.4383 6.49273C28.4234 6.54077 28.421 6.59171 28.4314 6.64092C28.4418 6.6901 28.4646 6.73592 28.4978 6.77419C28.6304 6.86253 28.7925 6.89735 28.9505 6.87144H32.4984L32.2286 8.38735H26.9096V8.38773ZM34.1821 8.38773L35.2548 2.35933H33.4087L33.6852 0.803162H40.2026L39.2161 2.35933H37.725L36.6525 8.38698H34.1821V8.38773ZM25.1694 4.10827C25.5059 3.79806 25.7164 3.37864 25.762 2.92773C25.8506 2.42917 25.9194 1.73589 25.5699 1.30231C25.2251 0.861518 24.5862 0.807441 24.0497 0.804134H18.7158L18.4992 2.02456C18.4992 2.02592 18.4992 2.02709 18.4992 2.02865L17.9716 4.99315H22.4276C22.5282 4.97805 22.6312 4.99021 22.7253 5.02833C22.8194 5.06644 22.9011 5.12908 22.9616 5.20945C23.0095 5.30455 23.0245 5.41241 23.0042 5.51661C23.0042 5.51661 22.8704 6.27523 22.87 6.27738C22.837 6.44188 22.7608 6.59509 22.649 6.72186C22.5957 6.77593 22.4361 6.87359 21.966 6.87359H21.2453L20.2939 8.38754H22.7913C23.447 8.38754 24.0156 8.38754 24.6017 7.85691C25.1604 7.35833 25.2578 6.75144 25.3444 6.26417C25.4274 5.79826 25.5029 5.31099 25.1678 4.92195C24.95 4.69108 24.6501 4.55133 24.3302 4.53173L24.3379 4.48856C24.6534 4.46669 24.9497 4.33168 25.1704 4.10925L25.1694 4.10827ZM23.3308 2.83455C23.3308 2.8398 23.3278 2.84661 23.3266 2.85225L23.2747 3.13917L23.2678 3.17807C23.2666 3.18333 23.2656 3.18858 23.264 3.19402C23.241 3.30277 23.1974 3.4063 23.1354 3.49923C23.0549 3.57973 22.9562 3.64038 22.8473 3.67619C22.7383 3.712 22.6223 3.72195 22.5087 3.70523H20.6717L20.7282 3.38777L20.7819 3.08723C20.7871 3.05747 20.7916 3.02888 20.7974 3.00009L20.8384 2.77036C20.8394 2.70844 20.8538 2.64743 20.8807 2.59141C20.9076 2.53539 20.9463 2.48565 20.9944 2.44551C21.0899 2.3762 21.2088 2.34511 21.3268 2.35855H22.737C22.9011 2.35855 23.1415 2.35855 23.2678 2.51048C23.3315 2.60649 23.3539 2.72336 23.33 2.83552L23.3308 2.83455Z" fill="white"/>
</g>
<defs>
<clipPath id="clip0_20_169">
<rect width="39.505" height="7.58495" fill="white" transform="translate(0.9505 0.802002)"/>
</clipPath>
</defs>
</svg>
