<svg width="24" height="21" viewBox="0 0 24 21" fill="none" xmlns="http://www.w3.org/2000/svg">
<path d="M12.0476 0.833313L4.6973 2.02608M12.0476 0.833313L7.46474 6.02408M12.0476 0.833313L19.381 2.02608M12.0476 0.833313L16.7143 6.02408M4.6973 2.02608L1 7.08432M4.6973 2.02608L7.46474 6.02408M1 7.08432L12.0476 19.1666M1 7.08432L7.46474 6.02408M12.0476 19.1666L7.46474 6.02408M12.0476 19.1666L23 7.08432M12.0476 19.1666L16.7143 6.02408M7.46474 6.02408H12.0476H16.7143M19.381 2.02608L16.7143 6.02408M19.381 2.02608L23 7.08432M16.7143 6.02408L23 7.08432" stroke="#80BAD6" stroke-width="1.2"/>
</svg>
