<svg width="18" height="18" viewBox="0 0 18 18" fill="none" xmlns="http://www.w3.org/2000/svg">
<path d="M3.74999 16.5H13.2975C13.8238 16.4998 14.3335 16.3151 14.7377 15.978C15.142 15.6409 15.4152 15.1728 15.51 14.655L16.4625 9.405C16.5218 9.08067 16.5092 8.74726 16.4254 8.42836C16.3416 8.10947 16.1888 7.81288 15.9777 7.55959C15.7667 7.30629 15.5025 7.10248 15.2039 6.96258C14.9054 6.82268 14.5797 6.75011 14.25 6.75H10.83L11.25 5.6775C11.4247 5.20791 11.4829 4.70295 11.4195 4.20594C11.3562 3.70893 11.1733 3.23469 10.8864 2.82392C10.5995 2.41315 10.2173 2.0781 9.77244 1.84751C9.32763 1.61692 8.83351 1.49767 8.33249 1.5C8.18822 1.5003 8.04709 1.54221 7.92604 1.62069C7.80499 1.69918 7.70914 1.81091 7.64999 1.9425L5.51249 6.75H3.74999C3.15325 6.75 2.58095 6.98705 2.159 7.40901C1.73704 7.83097 1.49999 8.40326 1.49999 9V14.25C1.49999 14.8467 1.73704 15.419 2.159 15.841C2.58095 16.2629 3.15325 16.5 3.74999 16.5ZM6.74999 7.6575L8.78999 3.0675C8.99872 3.13066 9.19231 3.23588 9.35883 3.37669C9.52535 3.5175 9.66129 3.69091 9.75825 3.88624C9.85521 4.08157 9.91116 4.29469 9.92264 4.51247C9.93411 4.73024 9.90088 4.94806 9.82499 5.1525L9.42749 6.225C9.34279 6.45169 9.31419 6.69551 9.34414 6.93565C9.37409 7.17579 9.4617 7.40511 9.59949 7.60405C9.73727 7.803 9.92115 7.96565 10.1354 8.07813C10.3497 8.19061 10.588 8.24958 10.83 8.25H14.25C14.3602 8.24982 14.469 8.27392 14.5689 8.32059C14.6687 8.36725 14.757 8.43534 14.8275 8.52C14.8997 8.60349 14.9527 8.70191 14.9825 8.80822C15.0123 8.91453 15.0183 9.02611 15 9.135L14.0475 14.385C14.0155 14.5597 13.9226 14.7174 13.7853 14.8301C13.6479 14.9427 13.4751 15.0029 13.2975 15H6.74999V7.6575ZM2.99999 9C2.99999 8.80109 3.079 8.61032 3.21966 8.46967C3.36031 8.32902 3.55107 8.25 3.74999 8.25H5.24999V15H3.74999C3.55107 15 3.36031 14.921 3.21966 14.7803C3.079 14.6397 2.99999 14.4489 2.99999 14.25V9Z" fill="#80BAD6"/>
</svg>
