<svg width="30" height="30" viewBox="0 0 30 30" fill="none" xmlns="http://www.w3.org/2000/svg">
<path fill-rule="evenodd" clip-rule="evenodd" d="M0 3.33333V26.6667C0 28.5 1.48333 30 3.33333 30H26.6667C28.5 30 30 28.5 30 26.6667V3.33333C30 1.5 28.5 0 26.6667 0H3.33333C1.48333 0 0 1.5 0 3.33333ZM20 10C20 12.7667 17.7667 15 15 15C12.2333 15 10 12.7667 10 10C10 7.23333 12.2333 5 15 5C17.7667 5 20 7.23333 20 10ZM15 18.1667C11.6667 18.1667 5 20 5 23.3333V25H25V23.3333C25 20 18.3333 18.1667 15 18.1667Z" fill="#A9A9A9"/>
</svg>
